<svg xmlns="http://www.w3.org/2000/svg" width="2358" height="864" fill="none"><path fill="#000" d="M229.314 658.024c0 37.603-30.484 68.087-68.087 68.087s-68.086-30.484-68.086-68.087 30.483-68.086 68.086-68.086 68.087 30.483 68.087 68.086"/><path fill="#000" d="M35.867 658.008c0 31.666 25.67 57.336 57.336 57.336V600.672c-31.666 0-57.336 25.67-57.336 57.336M0 658.003c0 19.791 16.044 35.835 35.835 35.835v-71.67C16.044 622.168 0 638.212 0 658.003M1573.31 68.087c0 37.603-30.48 68.086-68.08 68.086-37.61 0-68.09-30.483-68.09-68.086 0-37.604 30.48-68.087 68.09-68.087 37.6 0 68.08 30.483 68.08 68.087"/><path fill="#000" d="M1379.87 68.07c0 31.666 25.67 57.336 57.33 57.336V10.734c-31.66 0-57.33 25.67-57.33 57.336M1344 68.066c0 19.79 16.04 35.834 35.84 35.834V32.23c-19.8 0-35.84 16.044-35.84 35.836M2358 819.394c0 24.597-19.94 44.537-44.54 44.537-24.59 0-44.53-19.94-44.53-44.537s19.94-44.537 44.53-44.537c24.6 0 44.54 19.94 44.54 44.537"/><path fill="#000" d="M2231.46 819.383c0 20.714 16.79 37.505 37.51 37.505v-75.01c-20.72 0-37.51 16.792-37.51 37.505M2208 819.38c0 12.946 10.49 23.441 23.44 23.441v-46.882c-12.95 0-23.44 10.495-23.44 23.441"/></svg>